<?xml version="1.0" encoding="UTF-8" standalone="no"?>
<!-- Created with Inkscape (http://www.inkscape.org/) -->

<svg
   xmlns:dc="http://purl.org/dc/elements/1.1/"
   xmlns:cc="http://creativecommons.org/ns#"
   xmlns:rdf="http://www.w3.org/1999/02/22-rdf-syntax-ns#"
   xmlns:svg="http://www.w3.org/2000/svg"
   xmlns="http://www.w3.org/2000/svg"
   xmlns:sodipodi="http://sodipodi.sourceforge.net/DTD/sodipodi-0.dtd"
   xmlns:inkscape="http://www.inkscape.org/namespaces/inkscape"
   width="210mm"
   height="297mm"
   viewBox="0 0 210 297"
   version="1.1"
   id="svg8"
   enable-background="new"
   inkscape:version="0.92.4 (5da689c313, 2019-01-14)"
   sodipodi:docname="WebBackground.svg">
  <defs
     id="defs2" />
  <sodipodi:namedview
     id="base"
     pagecolor="#ffffff"
     bordercolor="#666666"
     borderopacity="1.0"
     inkscape:pageopacity="0.0"
     inkscape:pageshadow="2"
     inkscape:zoom="0.70710678"
     inkscape:cx="140.49181"
     inkscape:cy="561.25984"
     inkscape:document-units="mm"
     inkscape:current-layer="layer2"
     showgrid="false"
     inkscape:window-width="1920"
     inkscape:window-height="1006"
     inkscape:window-x="-10"
     inkscape:window-y="-10"
     inkscape:window-maximized="1" />
  <metadata
     id="metadata5">
    <rdf:RDF>
      <cc:Work
         rdf:about="">
        <dc:format>image/svg+xml</dc:format>
        <dc:type
           rdf:resource="http://purl.org/dc/dcmitype/StillImage" />
        <dc:title></dc:title>
      </cc:Work>
    </rdf:RDF>
  </metadata>
  <g
     inkscape:groupmode="layer"
     id="layer2"
     inkscape:label="Layer 2"
     style="display:inline;opacity:1">
    <rect
       style="fill:#d5ffe6;stroke-width:0.30311501"
       id="rect3768"
       width="210.28766"
       height="295.97427"
       x="0.37417734"
       y="-0.096806146" />
    <path
       style="fill:#00aad4;stroke-width:0.26458332"
       id="path3786"
       d="m 43.141257,268.05921 c 2.400466,0.0474 4.801613,0.0447 7.202442,0.0421 2.845826,0.005 5.691666,0.008 8.537488,0 1.883873,-0.008 3.76773,-0.0193 5.651568,-0.0329 1.124535,0.022 2.235793,-0.01 3.352983,-0.13097 1.589198,-0.1402 3.183887,-0.18833 4.778399,-0.21402 1.407435,-0.0238 2.815066,-0.0308 4.222667,-0.0356 0.775791,-0.0289 1.558372,0.0605 2.324881,-0.0752 0,0 -4.450689,3.30758 -4.450689,3.30758 v 0 c -0.778721,0.0351 -1.558152,0.008 -2.33749,0.0106 -1.393211,-0.004 -2.786547,-0.007 -4.179607,0.0183 -1.597179,0.0408 -3.195471,0.0963 -4.78454,0.27287 -1.124762,0.1048 -2.250987,0.10252 -3.379898,0.0821 -1.85365,-0.0138 -3.707316,-0.0254 -5.561002,-0.0329 -2.844774,-0.009 -5.689571,-0.006 -8.534352,0 -2.439483,-0.003 -4.879243,-0.004 -7.318381,0.0421 0,0 4.475531,-3.25168 4.475531,-3.25168 z"
       inkscape:connector-curvature="0" />
    <path
       style="fill:#00aad4;stroke-width:0.26458332"
       id="path3788"
       d="m 71.536937,277.03732 c 1.861947,0.0323 3.724453,0.0319 5.586635,0.0265 1.812287,0 3.624612,-0.003 5.436897,-0.009 1.479534,0 2.959062,-0.005 4.438597,-0.007 1.146622,-0.004 2.293249,-0.005 3.439874,-0.007 0.882983,-0.003 1.765964,-0.005 2.648947,-0.006 0.944526,0.005 1.889064,0.003 2.833593,0.006 1.266787,-0.0428 2.520579,0.1574 3.780877,0.25344 1.594623,-0.0127 3.143813,0.35428 4.707793,0.61412 0.99096,0.17286 1.99427,0.22821 2.99793,0.25273 1.20304,0.0214 2.40633,0.0124 3.60948,0.0111 0.54951,-0.003 1.09901,-0.005 1.64852,-0.007 0,0 -4.47298,3.25077 -4.47298,3.25077 v 0 c -0.54495,0 -1.08989,-0.003 -1.63483,-0.003 -1.2118,0.003 -2.42375,0.005 -3.63544,-0.0132 -1.01318,-0.0345 -2.02073,-0.14346 -3.016792,-0.3365 -1.546796,-0.28342 -3.089923,-0.57642 -4.670009,-0.57512 -1.261571,-0.0941 -2.519611,-0.25961 -3.787873,-0.1973 -0.949576,0.003 -1.899163,0 -2.848734,0.006 -0.877147,0 -1.754288,-0.004 -2.63143,-0.006 -1.140478,-0.003 -2.280957,-0.003 -3.421433,-0.007 -1.473152,-0.003 -2.946296,-0.008 -4.419451,-0.007 -1.804125,-0.006 -3.608287,-0.008 -5.412415,-0.009 -1.886378,-0.006 -3.773056,-0.005 -5.659212,0.0265 0,0 4.481456,-3.25596 4.481456,-3.25596 z"
       inkscape:connector-curvature="0" />
    <path
       style="fill:#00aad4;stroke-width:0.26458332"
       id="path3792"
       d="m 154.14654,274.03959 c 2.09736,0.0467 4.1956,0.0417 6.29338,0.0438 2.47666,-0.0145 4.95328,-2.1e-4 7.42992,0.008 3.34867,0.013 6.69735,0.0169 10.04605,0.014 2.37498,0 4.74983,-0.0241 7.12466,-0.048 1.1028,-0.007 2.20562,-0.009 3.30844,-0.0122 0.86226,-0.005 1.72452,0 2.58679,0 0.14403,-1.6e-4 0.28806,0 0.43209,0 0,0 -4.48359,3.25752 -4.48359,3.25752 v 0 c -0.14359,-1.6e-4 -0.28718,0 -0.43077,0 -0.86111,0 -1.72221,0.004 -2.58332,0 -1.09158,-0.004 -2.18316,-0.005 -3.27473,-0.0122 -2.33073,-0.0243 -4.66149,-0.0486 -6.99239,-0.0481 -3.36166,-0.003 -6.72332,0 -10.08496,0.014 -2.48368,0.008 -4.96734,0.0222 -7.45104,0.008 -2.13794,0.003 -4.2763,-0.003 -6.41384,0.0438 0,0 4.49331,-3.26459 4.49331,-3.26459 z"
       inkscape:connector-curvature="0" />
    <path
       style="fill:#00aad4;stroke-width:0.26458332"
       id="path3794"
       d="m 87.148145,287.06336 c 1.31009,-0.0716 2.602211,-0.25625 3.898622,-0.44828 1.181447,-0.0938 2.344142,-0.31803 3.519911,-0.46247 0.951402,-0.11377 1.910519,-0.12499 2.867387,-0.13679 0.815581,-0.006 1.631217,-0.006 2.446804,-0.003 0.946531,0.008 1.893111,0.004 2.839651,0.003 0.9639,-0.004 1.92779,0.004 2.89168,0.008 1.46802,0.005 2.93602,0.0114 4.40404,0.007 1.10101,-0.0177 2.18839,-0.0539 3.27623,0.12345 1.12945,0.35373 2.22535,0.8095 3.36186,1.14676 1.46073,0.4831 2.98745,0.70498 4.45943,1.14673 0.85415,0.32255 1.63369,0.80471 2.46186,1.18568 0,0 -4.61237,3.04797 -4.61237,3.04797 v 0 c -0.79185,-0.38833 -1.55592,-0.84542 -2.39601,-1.12419 -1.47346,-0.4196 -2.98424,-0.6932 -4.444,-1.16313 -1.12121,-0.34473 -2.21591,-0.79359 -3.36104,-1.04714 -1.05708,-0.13367 -2.12381,-0.0659 -3.18686,-0.0896 -1.4747,-0.004 -2.94937,0.003 -4.42407,0.007 -0.97135,0.004 -1.942705,0.0124 -2.914067,0.008 -0.947097,-0.003 -1.89421,-0.007 -2.841305,-0.003 -0.812832,0.003 -1.625706,-0.004 -2.438501,0.007 -0.941485,0.0172 -1.883568,0.0516 -2.817979,0.17706 -1.168241,0.15462 -2.331733,0.34153 -3.504345,0.46223 -1.310405,0.18423 -2.625363,0.30893 -3.938934,0.46524 0,0 4.452006,-3.31994 4.452006,-3.31994 z"
       inkscape:connector-curvature="0" />
    <path
       style="fill:#00aad4;stroke-width:0.26458332"
       id="path3796"
       d="m 164.99768,284.51656 c 2.02946,0.0411 4.05955,0.0386 6.08933,0.0469 2.68417,0.0294 5.37043,-0.056 8.05302,0.0492 2.01839,0.11523 4.03753,0.21085 6.05847,0.26588 1.64583,0.0355 3.29211,0.0372 4.93824,0.037 1.4693,0.0402 2.94637,-0.0842 4.41134,0.0491 0.87001,0.12094 1.74035,0.22751 2.61765,0.2745 0.91195,0.0356 1.82479,0.0346 2.73728,0.0337 0.6344,0.003 1.26881,-3e-5 1.90321,-0.003 0,0 -4.48021,3.25573 -4.48021,3.25573 v 0 c -0.6344,0 -1.2688,-0.003 -1.9032,-1.1e-4 -0.92332,-0.005 -1.84754,-0.003 -2.76965,-0.0554 -0.86676,-0.0711 -1.72519,-0.20481 -2.5895,-0.29855 -1.45126,-0.0803 -2.90717,-0.0114 -4.35998,-0.0371 -1.64836,-0.004 -3.29708,-0.003 -4.94488,-0.0522 -2.00282,-0.0685 -4.00194,-0.21124 -6.00344,-0.30877 -2.67651,-0.0847 -5.35503,-0.0243 -8.03252,-0.0403 -2.07283,0.008 -4.14594,0.006 -6.21847,0.0469 0,0 4.49331,-3.26459 4.49331,-3.26459 z"
       inkscape:connector-curvature="0" />
    <path
       style="fill:#00aad4;stroke-width:0.26458332"
       id="path3798"
       d="m 12.000949,280.77694 c 2.007806,0.0399 4.01628,0.0378 6.024413,0.0365 2.066853,0.007 4.133682,-0.007 6.200501,-0.0161 1.26558,0 2.531113,-0.0204 3.796668,-0.0111 1.313082,0.005 2.626109,0.006 3.939188,0 0.956818,-0.007 1.913636,-0.007 2.87047,-0.007 0.9628,-0.003 1.925571,0.004 2.888374,0.003 1.027846,0 2.055702,0 3.083547,0.003 0.179607,-1.3e-4 0.359214,-2.6e-4 0.538821,0 0,0 -4.469445,3.24726 -4.469445,3.24726 v 0 c -0.179242,-1.3e-4 -0.358484,-2.7e-4 -0.537725,0 -1.029523,0.003 -2.059057,0.003 -3.08858,0.003 -0.965104,0 -1.93018,0.005 -2.895285,0.003 -0.950163,1.6e-4 -1.900311,-1.3e-4 -2.850459,-0.007 -1.313589,-0.006 -2.627125,-0.004 -3.940715,0 -1.255421,0.009 -2.510811,-0.0119 -3.766256,-0.0111 -2.052028,-0.009 -4.104065,-0.0227 -6.156126,-0.0161 -2.041594,0 -4.0834927,-0.003 -6.1247769,0.0365 0,0 4.4873859,-3.26027 4.4873859,-3.26027 z"
       inkscape:connector-curvature="0" />
    <ellipse
       style="fill:#ffffff;stroke-width:0.26458332"
       id="path3800"
       cx="97.28611"
       cy="110.09842"
       rx="16.463802"
       ry="14.03165" />
    <ellipse
       style="fill:#ffffff;stroke-width:0.26458332"
       id="path3802"
       cx="106.64054"
       cy="123.75589"
       rx="9.728611"
       ry="7.8577237" />
    <ellipse
       style="fill:#ffffff;stroke-width:0.26458332"
       id="path3804"
       cx="108.51142"
       cy="99.434364"
       rx="7.4835467"
       ry="10.476966" />
    <ellipse
       style="fill:#ffffff;stroke-width:0.26458332"
       id="path3806"
       cx="80.073944"
       cy="110.84677"
       rx="13.470385"
       ry="14.780005" />
    <ellipse
       style="fill:#ffffff;stroke-width:0.26458332"
       id="path3808"
       cx="116.18206"
       cy="120.2012"
       rx="8.4189901"
       ry="11.786586" />
    <ellipse
       style="fill:#ffffff;stroke-width:0.26458332"
       id="path3810"
       cx="181.6631"
       cy="101.11816"
       rx="11.038231"
       ry="11.786586" />
    <circle
       style="fill:#ffffff;stroke-width:0.26458332"
       id="path3812"
       cx="171.37323"
       cy="111.78222"
       r="4.4901276" />
    <ellipse
       style="fill:#ffffff;stroke-width:0.26458332"
       id="path3814"
       cx="172.86992"
       cy="94.195877"
       rx="8.9802551"
       ry="7.8577237" />
    <ellipse
       style="fill:#ffffff;stroke-width:0.26458332"
       id="path3816"
       cx="192.32715"
       cy="105.60829"
       rx="7.4835467"
       ry="8.0448132" />
    <ellipse
       style="fill:#ffffff;stroke-width:0.26458332"
       id="path3818"
       cx="166.50891"
       cy="107.105"
       rx="9.728611"
       ry="6.9222808" />
    <path
       style="fill:#ffff00;stroke-width:0.26458332"
       id="path3847"
       d="m 28.481633,64.582415 c -0.83186,0.589947 -1.569317,1.302702 -2.405724,1.884807 -0.660839,0.427728 -1.316153,0.862023 -1.964845,1.30802 -0.526205,0.457031 -1.0338,0.939404 -1.522055,1.437381 -0.452552,0.410086 -0.851486,0.87303 -1.285952,1.300708 -0.592121,0.617587 -1.065282,1.33596 -1.608865,1.996315 -0.616043,0.744464 -1.382697,1.34315 -2.102274,1.982486 -0.452529,0.409784 -0.916516,0.807551 -1.386552,1.197245 0,0 -1.372179,0.552066 -1.372179,0.552066 v 0 c 0.477172,-0.381793 0.936927,-0.785868 1.392715,-1.192659 0.715379,-0.639564 1.483019,-1.232115 2.109978,-1.961592 0.549442,-0.658484 1.027441,-1.372246 1.598204,-2.0105 0.446879,-0.413774 0.821547,-0.89758 1.286375,-1.293241 0.476672,-0.515591 1.012809,-0.973246 1.512707,-1.466231 0.646693,-0.451477 1.303032,-0.884232 1.966459,-1.31069 0.852456,-0.556241 1.571076,-1.290145 2.408244,-1.86962 0,0 1.373764,-0.554495 1.373764,-0.554495 z"
       inkscape:connector-curvature="0" />
    <path
       style="fill:#ffff00;stroke-width:0.26458332"
       id="path3849"
       d="m 28.521252,64.240586 c -0.851739,0.917922 -1.817044,1.716059 -2.785606,2.505396 -0.587879,0.451791 -1.174154,0.91014 -1.712033,1.421386 -0.550166,0.476012 -1.095789,0.95613 -1.627177,1.453269 -0.601233,0.487453 -1.23555,0.945116 -1.886898,1.364583 -0.47966,0.299689 -0.858539,0.731936 -1.241758,1.142439 0,0 -1.366519,0.573622 -1.366519,0.573622 v 0 c 0.374867,-0.422878 0.765846,-0.85362 1.226717,-1.1817 0.667677,-0.387289 1.276328,-0.887812 1.902232,-1.337964 0.526858,-0.497752 1.060342,-0.988327 1.62206,-1.446892 0.519108,-0.536604 1.129981,-0.981377 1.71777,-1.438968 0.961065,-0.789477 1.933617,-1.56677 2.787727,-2.475857 0,0 1.363485,-0.579314 1.363485,-0.579314 z"
       inkscape:connector-curvature="0" />
    <path
       style="fill:#ffff00;stroke-width:0.26458332"
       id="path3851"
       d="m 4.7520994,49.336899 c 1.3071176,0.293084 2.6386835,0.456125 3.9720729,0.568933 0.8869185,0.06928 1.7767177,0.07866 2.6658307,0.08167 0.804305,-5.29e-4 1.60861,-0.0019 2.412915,-0.0031 0.810583,-0.0013 1.621167,-0.0019 2.431751,-0.0021 0.628562,-1.8e-4 1.257123,-1.8e-4 1.885685,-1.88e-4 0,0 -1.197643,0.870138 -1.197643,0.870138 v 0 c -0.628423,-2.4e-5 -1.256846,-6.1e-5 -1.885268,-8e-5 -0.809966,1.1e-5 -1.619933,-5e-6 -2.429898,0.0011 -0.805035,0.0013 -1.610067,0.0055 -2.415104,0.0035 -0.8893633,-0.0055 -1.7793647,-0.02019 -2.6659964,-0.09666 -1.3388226,-0.122721 -2.6739977,-0.29759 -3.9893523,-0.580358 0,0 1.2150071,-0.84279 1.2150071,-0.84279 z"
       inkscape:connector-curvature="0" />
  </g>
  <g
     inkscape:label="Layer 1"
     inkscape:groupmode="layer"
     id="layer1"
     style="display:inline;opacity:0.84600004">
    <ellipse
       style="fill:#ccff00;stroke-width:0.459654"
       id="path3715"
       cx="146.49043"
       cy="238.62833"
       rx="74.2742"
       ry="37.417732" />
    <ellipse
       id="path3713"
       cx="98.297348"
       cy="255.5563"
       rx="104.76965"
       ry="42.296936"
       style="fill:#00ff00;stroke-width:0.34525105"
       transform="matrix(1,0,0.02653932,0.99964777,0,0)" />
    <rect
       style="fill:#00ccff;stroke-width:0.26458332"
       id="rect3721"
       width="209.16513"
       height="36.2952"
       x="0.74835467"
       y="261.82733" />
    <rect
       style="fill:#ffffff;stroke-width:0.26458332"
       id="rect3723"
       width="14.218739"
       height="41.907864"
       x="211.28177"
       y="218.42276" />
    <ellipse
       style="fill:#ffff00;stroke-width:0.42915973"
       id="path3725"
       cx="32.927605"
       cy="47.423717"
       rx="14.592915"
       ry="12.722029" />
    <rect
       style="fill:#d45500;stroke-width:0.24443592"
       id="rect3730"
       width="4.1159506"
       height="50.139763"
       x="28.811655"
       y="188.48857" />
    <rect
       style="fill:#d45500;stroke-width:0.26458332"
       id="rect3732"
       width="2.6192415"
       height="21.702284"
       x="156.40613"
       y="185.86932" />
    <rect
       style="fill:#d45500;stroke-width:0.26458332"
       id="rect3734"
       width="2.9934187"
       height="38.914444"
       x="69.971161"
       y="194.84959" />
    <ellipse
       style="fill:#445500;stroke-width:0.26458332"
       id="path3739"
       cx="31.243807"
       cy="185.86932"
       rx="12.534941"
       ry="17.96051" />
    <ellipse
       style="fill:#668000;stroke-width:0.26458332"
       id="path3741"
       cx="71.093689"
       cy="192.79161"
       rx="8.2319012"
       ry="12.534941" />
    <ellipse
       style="fill:#89a02c;stroke-width:0.26458332"
       id="path3743"
       cx="157.52866"
       cy="184.37262"
       rx="5.238483"
       ry="9.728611" />
    <path
       sodipodi:type="star"
       style="fill:#ddafe9;stroke-width:0.26458332"
       id="path3747"
       sodipodi:sides="5"
       sodipodi:cx="92.047623"
       sodipodi:cy="230.39642"
       sodipodi:r1="5.0340414"
       sodipodi:r2="2.5170207"
       sodipodi:arg1="0.83798123"
       sodipodi:arg2="1.4662998"
       inkscape:flatsided="false"
       inkscape:rounded="0"
       inkscape:randomized="0"
       d="m 95.415219,234.1382 -3.105055,-1.23849 -2.780535,1.85576 0.218352,-3.3358 -2.62416,-2.07098 3.240004,-0.82315 1.158714,-3.1357 1.784081,2.82706 3.340285,0.13302 -2.137381,2.57037 z"
       inkscape:transform-center-x="0.1622608"
       inkscape:transform-center-y="-0.32377081" />
    <path
       sodipodi:type="star"
       style="fill:#ffaacc;stroke-width:0.26458332"
       id="path3749"
       sodipodi:sides="5"
       sodipodi:cx="134.32967"
       sodipodi:cy="240.49922"
       sodipodi:r1="5.0893617"
       sodipodi:r2="2.5446811"
       sodipodi:arg1="0.94200004"
       sodipodi:arg2="1.5703186"
       inkscape:flatsided="false"
       inkscape:rounded="0"
       inkscape:randomized="0"
       d="m 137.32308,244.61517 -2.9922,-1.57127 -2.9907,1.57413 0.56973,-3.3313 -2.42127,-2.35789 3.34432,-0.48759 1.49427,-3.03139 1.49718,3.02996 3.34477,0.48439 -2.419,2.36021 z"
       inkscape:transform-center-x="0.00075305838"
       inkscape:transform-center-y="-0.48527921" />
    <path
       sodipodi:type="star"
       style="fill:#55ddff;stroke-width:0.26458332"
       id="path3751"
       sodipodi:sides="5"
       sodipodi:cx="154.16107"
       sodipodi:cy="224.40959"
       sodipodi:r1="3.9775593"
       sodipodi:r2="1.9887798"
       sodipodi:arg1="0.85196633"
       sodipodi:arg2="1.4802849"
       inkscape:flatsided="false"
       inkscape:rounded="0"
       inkscape:randomized="0"
       d="m 156.78031,227.40301 -2.43948,-1.01278 -2.21728,1.43543 0.20937,-2.63305 -2.05035,-1.66519 2.56888,-0.61454 0.9501,-2.46457 1.37828,2.25325 2.63754,0.142 -1.71705,2.00712 z"
       inkscape:transform-center-x="0.11110078"
       inkscape:transform-center-y="-0.27260994" />
    <path
       sodipodi:type="star"
       style="fill:#99ff55;stroke-width:0.26458332"
       id="path3753"
       sodipodi:sides="5"
       sodipodi:cx="183.72107"
       sodipodi:cy="213.93263"
       sodipodi:r1="4.7918077"
       sodipodi:r2="2.3959038"
       sodipodi:arg1="0.89605538"
       sodipodi:arg2="1.5243739"
       inkscape:flatsided="false"
       inkscape:rounded="0"
       inkscape:randomized="0"
       d="m 186.71449,217.67441 -2.88224,-1.34845 -2.7448,1.60985 0.39179,-3.15786 -2.37926,-2.11299 3.12438,-0.60321 1.27434,-2.91576 1.53918,2.78505 3.16684,0.31095 -2.17311,2.32448 z"
       inkscape:transform-center-x="0.068717617"
       inkscape:transform-center-y="-0.39173454" />
    <path
       sodipodi:type="star"
       style="fill:#ff2a2a;stroke-width:0.26458332"
       id="path3755"
       sodipodi:sides="5"
       sodipodi:cx="53.881535"
       sodipodi:cy="244.98933"
       sodipodi:r1="3.7417734"
       sodipodi:r2="1.8708867"
       sodipodi:arg1="0.64350111"
       sodipodi:arg2="1.2718196"
       inkscape:flatsided="false"
       inkscape:rounded="0"
       inkscape:randomized="0"
       d="m 56.874953,247.2344 -2.442363,-0.45717 -1.761221,1.75278 -0.319934,-2.4641 -2.211243,-1.13338 2.244633,-1.06573 0.394599,-2.45325 1.707193,1.80545 2.455118,-0.38281 -1.189529,2.18155 z"
       inkscape:transform-center-x="0.34057173"
       inkscape:transform-center-y="-0.017557595" />
  </g>
  <g
     inkscape:groupmode="layer"
     id="layer3"
     inkscape:label="Layer 3"
     style="opacity:1"
     sodipodi:insensitive="true">
    <path
       style="fill:#ffff00;stroke-width:0.26458332"
       id="path3831"
       d="m 33.546748,17.519653 c -0.149873,1.134634 -0.236014,2.276143 -0.292735,3.418807 -0.04053,0.810671 0.0059,1.619741 -0.142827,2.420093 -0.152316,0.654288 -0.212014,1.322183 -0.24701,1.991316 -0.02397,0.710849 0.0057,1.415733 -0.127061,2.116691 -0.155668,0.757674 -0.211759,1.529503 -0.247706,2.300541 -0.02795,0.761344 -0.02711,1.523344 -0.0275,2.285085 0.02734,0.50909 -0.07936,1.010483 -0.162549,1.509633 0,0 -1.329762,0.650054 -1.329762,0.650054 v 0 c 0.08236,-0.492029 0.199538,-0.985744 0.173342,-1.487707 2.2e-4,-0.763796 -7.94e-4,-1.52782 0.02513,-2.291281 0.0337,-0.77679 0.08636,-1.554432 0.2349,-2.319147 0.144336,-0.694666 0.124172,-1.39038 0.138126,-2.097949 0.0315,-0.674758 0.08227,-1.350041 0.236516,-2.009811 0.162666,-0.794703 0.123706,-1.596658 0.159419,-2.404787 0.05814,-1.144609 0.149109,-2.287126 0.281909,-3.425659 0,0 1.327801,-0.655879 1.327801,-0.655879 z"
       inkscape:connector-curvature="0" />
    <path
       style="fill:#ffff00;stroke-width:0.26458332"
       id="path3833"
       d="m 45.942924,41.043812 c 0.867855,-0.940356 1.711823,-1.916409 2.692554,-2.742126 0.602165,-0.486955 1.195681,-0.980739 1.774322,-1.49552 0.683352,-0.642498 1.500584,-1.114748 2.303034,-1.590823 0.697748,-0.421423 1.333256,-0.934204 2.011439,-1.386597 0,0 1.377643,-0.539131 1.377643,-0.539131 v 0 c -0.679474,0.453933 -1.324904,0.953421 -2.010434,1.395725 -0.805556,0.463082 -1.623377,0.936273 -2.312868,1.563777 -0.584206,0.511882 -1.16231,1.024621 -1.776161,1.501953 -0.996702,0.798311 -1.819953,1.785128 -2.701817,2.703906 0,0 -1.357712,0.588836 -1.357712,0.588836 z"
       inkscape:connector-curvature="0" />
    <path
       style="fill:#ffff00;stroke-width:0.26458332"
       id="path3835"
       d="m 12.419967,28.284024 c 0.709649,1.038408 1.616893,1.923301 2.459145,2.852613 0.613665,0.760746 1.389373,1.354918 2.127296,1.984179 0.633714,0.470231 1.269329,0.937792 1.903944,1.407248 0.563917,0.547661 0.992991,1.248037 1.382164,1.930241 0.490015,0.848495 0.895804,1.736011 1.432333,2.557354 0.09933,0.120182 0.19866,0.240366 0.29799,0.360548 0,0 -1.266007,0.758719 -1.266007,0.758719 v 0 c -0.101651,-0.124997 -0.203302,-0.249994 -0.304954,-0.374992 -0.537695,-0.824097 -0.94661,-1.713256 -1.439513,-2.563508 -0.378518,-0.665207 -0.798714,-1.348076 -1.354588,-1.875763 -0.632456,-0.47679 -1.274938,-0.938991 -1.905819,-1.417318 -0.742677,-0.632595 -1.514086,-1.239649 -2.130718,-2.00452 -0.84808,-0.939392 -1.75509,-1.836634 -2.484148,-2.874894 0,0 1.282875,-0.739907 1.282875,-0.739907 z"
       inkscape:connector-curvature="0" />
    <path
       style="fill:#ffff00;stroke-width:0.26458332"
       id="path3837"
       d="m 47.178266,58.225351 c 0.478772,1.173395 1.048459,2.294696 1.661062,3.402629 0.379423,0.840917 0.82541,1.6315 1.331161,2.399916 0.51879,0.596151 1.007015,1.211744 1.50504,1.82372 0.430007,0.551701 0.830289,1.126426 1.269217,1.670611 0,0 -1.269439,0.758878 -1.269439,0.758878 v 0 c -0.435435,-0.546616 -0.838671,-1.118389 -1.269148,-1.669362 -0.501081,-0.61563 -0.993613,-1.234641 -1.512932,-1.836569 -0.506651,-0.772638 -0.951151,-1.568563 -1.328611,-2.414688 -0.610637,-1.113832 -1.178875,-2.241081 -1.678355,-3.409508 0,0 1.292005,-0.725627 1.292005,-0.725627 z"
       inkscape:connector-curvature="0" />
    <path
       style="fill:#ffff00;stroke-width:0.26458332"
       id="path3839"
       d="m 28.952393,65.647905 c -0.198456,0.09692 -0.504377,0.492011 -0.595365,0.290767 -0.0912,-0.201719 0.738164,-0.475909 0.583086,-0.317926 -0.184026,0.18747 -0.446471,0.277074 -0.673211,0.409739 -0.627232,0.366987 -1.259808,0.724765 -1.888563,1.089136 -0.22121,0.128193 0.425795,-0.292812 0.665921,-0.380606 0.198104,-0.07243 -0.358437,0.222472 -0.537652,0.333708 -0.810592,0.532387 -1.598103,1.13596 -2.192209,1.90939 -0.481626,0.745948 -1.034999,1.440511 -1.570482,2.147684 -0.572711,0.700061 -1.175657,1.370031 -1.718744,2.094809 -0.194838,0.234807 -0.384541,0.471572 -0.589256,0.697817 0,0 -1.369706,0.571691 -1.369706,0.571691 v 0 c 0.215309,-0.216908 0.392274,-0.4571 0.59917,-0.682038 0.532417,-0.736915 1.144235,-1.402641 1.725076,-2.099786 0.534197,-0.705022 1.089539,-1.396037 1.56501,-2.142979 0.567107,-0.806292 1.373359,-1.415339 2.181542,-1.965336 1.103209,-0.694359 0.472746,-0.306729 2.379918,-1.40567 0.205478,-0.118401 -0.792562,0.515482 -0.613949,0.359478 0.197866,-0.172817 0.44637,-0.277254 0.672639,-0.410741 1.978681,-1.167313 1.301962,-0.82096 2.534716,-1.416783 0,0 -1.157941,0.917646 -1.157941,0.917646 z"
       inkscape:connector-curvature="0" />
    <path
       style="fill:#ffff00;stroke-width:0.26458332"
       id="path3841"
       d="m 5.4912685,50.356608 c 1.2467093,-0.04365 2.5111977,0.114824 3.7443582,-0.09614 1.0467193,-0.284028 2.1075073,-0.471035 3.1862873,-0.572156 0.84742,0.01588 1.66207,-0.202073 2.493709,-0.319376 0.734529,-0.06548 1.440865,-0.298204 2.137212,-0.528606 0,0 -1.16962,0.908174 -1.16962,0.908174 v 0 c -0.700274,0.231005 -1.414655,0.437663 -2.151611,0.507765 -0.829097,0.130561 -1.648516,0.310441 -2.49336,0.309729 -1.075937,0.108969 -2.1297089,0.31778 -3.1793435,0.577133 -1.2454834,0.170177 -2.5100555,0.03676 -3.764268,0.08289 0,0 1.196636,-0.869408 1.196636,-0.869408 z"
       inkscape:connector-curvature="0" />
    <path
       style="fill:#ffff00;stroke-width:0.26458332"
       id="path3843"
       d="m 50.706305,48.42366 c 0.914117,0.836957 1.946214,1.53062 2.959724,2.239677 0.852787,0.546415 1.79277,0.939189 2.714909,1.35214 0.93346,0.405881 1.940798,0.582361 2.886106,0.943901 1.378781,0.503594 2.745238,1.042937 4.110456,1.582499 0.522925,0.15104 0.984721,0.439404 1.456944,0.699953 0,0 -1.235081,0.80555 -1.235081,0.80555 v 0 C 63.132416,55.790197 62.671144,55.515848 62.157038,55.360233 60.79287,54.82084 59.43211,54.269396 58.049157,53.780126 c -0.957091,-0.339434 -1.963301,-0.533498 -2.896111,-0.949614 -0.927764,-0.420396 -1.878989,-0.809741 -2.730362,-1.375256 -1.015696,-0.714928 -2.039403,-1.425702 -2.971205,-2.249324 0,0 1.254826,-0.782272 1.254826,-0.782272 z"
       inkscape:connector-curvature="0" />
    <path
       style="fill:#ffff00;stroke-width:0.26458332"
       id="path3845"
       d="m 47.718307,39.400974 c 1.158616,-0.334108 2.296406,-0.742651 3.462616,-1.048718 0.879946,-0.351237 1.796343,-0.54473 2.73423,-0.650698 0.493289,-0.09957 0.321453,-0.04013 0.766104,-0.221453 0.111019,-0.04527 0.432607,-0.204441 0.330962,-0.140857 -1.931961,1.208538 -0.880824,0.509374 -0.499864,0.209569 0.439303,-0.355336 0.837779,-0.759992 1.228013,-1.168019 0.562613,-0.60307 1.265732,-1.037154 1.945291,-1.493406 0.483724,-0.451144 1.067488,-0.780772 1.572625,-1.201259 0.0091,-0.01035 0.03972,-0.02516 0.02726,-0.03105 -0.147479,-0.06972 -0.893242,-0.02262 -1.079233,-0.02492 -0.754602,-0.0024 -1.509191,0.0043 -2.263791,0.0058 -0.722275,0.03461 -1.382038,0.283456 -2.06039,0.499173 -0.102489,0.0435 -0.20424,0.08878 -0.307461,0.130506 -0.532969,0.215437 -0.12096,0.01844 -0.608055,0.286343 -0.09389,0.05164 -0.376407,0.204867 -0.283861,0.150857 1.23694,-0.721892 1.231913,-0.735981 0.623453,-0.304715 -0.62561,0.610044 -1.26384,1.19662 -1.958385,1.728517 -0.627401,0.390705 -1.179359,0.872191 -1.748125,1.339962 -1.10762,0.810267 -2.325061,1.456727 -3.538525,2.092327 -0.430326,0.24384 -1.703858,0.942816 0.304377,-0.178178 0,0 -1.380548,0.537268 -1.380548,0.537268 v 0 c 0.741844,-0.437192 1.472901,-0.879303 2.229649,-1.28623 0.413806,-0.22176 1.622128,-0.975703 -0.151995,0.139354 -0.268037,0.168463 0.539541,-0.331735 0.801679,-0.509241 0.120468,-0.08157 0.241385,-0.162478 0.36208,-0.243718 0.5784,-0.455483 1.103286,-0.973836 1.74553,-1.344645 0.707954,-0.516244 1.356286,-1.096176 1.960504,-1.730816 0.946791,-0.717894 2.01194,-1.293046 3.121361,-1.716382 0.680413,-0.225366 1.3593,-0.437234 2.084303,-0.459673 0.756253,-0.0038 1.512536,-0.0099 2.268797,-0.006 0.351176,0.0063 1.156258,-0.114935 1.228759,0.358804 -0.434673,0.469022 -1.145251,0.728184 -1.573548,1.229794 -0.680765,0.445344 -1.377641,0.879377 -1.954498,1.458838 -0.376955,0.422564 -0.788591,0.818886 -1.219536,1.184675 -0.875612,0.785884 -1.993916,1.389115 -3.158144,1.591535 -0.931793,0.116578 -1.835187,0.335232 -2.716421,0.663837 -1.165733,0.320241 -2.309593,0.717206 -3.471368,1.052189 0,0 1.176152,-0.899353 1.176152,-0.899353 z"
       inkscape:connector-curvature="0" />
  </g>
</svg>
